<svg xmlns="http://www.w3.org/2000/svg" xmlns:xlink="http://www.w3.org/1999/xlink" width="546" height="749.871" viewBox="0 0 546 749.871">
  <defs>
    <filter id="base" x="0" y="73.509" width="396.445" height="676.362" filterUnits="userSpaceOnUse">
      <feOffset dx="-10" dy="22" input="SourceAlpha"/>
      <feGaussianBlur stdDeviation="17" result="blur"/>
      <feFlood flood-opacity="0.102"/>
      <feComposite operator="in" in2="blur"/>
      <feComposite in="SourceGraphic"/>
    </filter>
    <clipPath id="clip-path">
      <rect id="Mask" width="349.362" height="551.97" fill="none"/>
    </clipPath>
  </defs>
  <g id="Background" transform="translate(42.283 -69)" opacity="0.736">
    <circle id="Oval" cx="252" cy="252" r="252" transform="translate(-0.283 69)" fill="#7ea00e"/>
  </g>
  <g id="Group_4" data-name="Group 4" transform="translate(61 99.184)">
    <g id="Group" transform="matrix(0.999, -0.035, 0.035, 0.999, 0, 12.919)">
      <g transform="matrix(1, 0.03, -0.03, 1, -57.05, -114.16)" filter="url(#base)">
        <rect id="base-2" data-name="base" width="274.89" height="565.112" rx="36.45" transform="matrix(1, -0.03, 0.03, 1, 61, 112.1)" fill="#f2f2f2"/>
      </g>
      <path id="Screen" d="M225.7,540.273H24.3A24.28,24.28,0,0,1,0,515.973V24.3A24.279,24.279,0,0,1,24.3,0H58.044V5.747a13.77,13.77,0,0,0,13.77,13.77H178.942a13.77,13.77,0,0,0,13.77-13.77V0H225.7A24.279,24.279,0,0,1,250,24.3V515.973a24.28,24.28,0,0,1-24.3,24.3Z" transform="translate(12.047 12.047)" fill="#54c0cc"/>
      <g id="Illustration" transform="translate(20.808 0)">
        <rect id="Mask-2" data-name="Mask" width="349.362" height="551.97" fill="none"/>
        <g id="Illustration-2" data-name="Illustration" clip-path="url(#clip-path)">
          <g id="Group_2" data-name="Group 2" transform="translate(-87.998 -146.839) rotate(14)">
            <g id="Head_Front" data-name="Head/Front" transform="matrix(0.848, 0.53, -0.53, 0.848, 356.195, 0)">
              <g id="Head" transform="translate(92.367 52.955)">
                <path id="Head-2" data-name="Head" d="M0,124.7,14.132,58.915C6.251,49.676.916,38.353,1.807,25.666,4.377-10.89,55.332-2.848,65.243,15.6s8.735,65.251-4.075,68.549c-5.109,1.315-15.992-1.906-27.069-8.574l6.953,49.12Z" transform="translate(0 0)" fill="#b28b67"/>
              </g>
              <path id="hair" d="M89.57,92.243c-6.3,0-12.136-4.019-16.441-11.316-4.08-6.916-6.42-16.284-6.42-25.7,0-.657.013-1.333.04-2.008-4.521,3.1-8.8,7.243-12.931,11.251-4.427,4.291-9,8.729-13.992,12.023-5.6,3.7-11.1,5.5-16.8,5.5-6.363,0-12.283-3.27-16.67-9.208A33.516,33.516,0,0,1,0,53.256a26.776,26.776,0,0,1,1.3-8.45,20.333,20.333,0,0,1,4.087-7.189,19.226,19.226,0,0,1,7.149-5,27.631,27.631,0,0,1,10.486-1.873c24.178,0,36,3.488,46.311,8.725A33.218,33.218,0,0,1,78.21,25.654a13.76,13.76,0,0,1,4.08-2.892A19.136,19.136,0,0,1,85.7,21.3c6.391-2.344,15.548-3.88,25.124-4.214,1.345-.047,2.69-.07,4-.07.5,0,1,0,1.49.01a17.1,17.1,0,1,1,18.031,17.111,86.138,86.138,0,0,1-19.134,3.248,35.727,35.727,0,0,1,1.1,9.164,51.644,51.644,0,0,1-.954,9.529,7.971,7.971,0,0,0-5.889-3.127,10.107,10.107,0,0,0-7.4,3.146,10.419,10.419,0,0,0-2.862,7.1,13.166,13.166,0,0,0,2.643,8.333,9.42,9.42,0,0,0,6.883,3.6,45.856,45.856,0,0,1-8.854,12.213C96.4,90.6,92.932,92.243,89.57,92.243Z" transform="translate(11.973 34.164)" fill="#191847"/>
            </g>
            <g id="Bottom_Skinny_Jeans_1" data-name="Bottom/Skinny Jeans 1" transform="translate(0 364.684)">
              <path id="Skirt_Shadow" data-name="Skirt Shadow" d="M0,29.547S67.389,48.41,116.283,48.41s90.829-29.049,90.829-29.049S141.166,0,98.492,0,0,29.547,0,29.547Z" transform="translate(182.421 154.287)" fill="#54c0cc"/>
              <path id="Leg" d="M112.865,220.824a10.6,10.6,0,0,1-1.089-2.129C105.771,202.8,9.583,31.347,0,0H108.294c7.286,23.833,40.079,173.4,44.694,203.239,14.561,47.07,44.542,199.513,48.369,210.074,4.026,11.11-18.628,22.683-24.665,9.025-9.605-21.732-32.492-81.865-42.683-118.582C124.455,269.334,116.676,238.366,112.865,220.824Z" transform="translate(224.731)" fill="#997659"/>
              <path id="Leg-2" data-name="Leg" d="M230.032,241.757C186.057,252.88,25.2,272.988,14.165,276.142,2.81,279.387-7.147,255.963,6.889,250.89c22.333-8.073,83.87-26.727,121.181-34.34,30.01-6.123,57.395-11.119,75.78-14.045C202.292,150.821,195.172,26.789,199.839,0h95.82c-4.475,25.688-42.305,213.127-49.337,231.889-2.231,6.7-8.889,9.658-16.29,9.868Z" transform="translate(18.964 0)" fill="#b28b67"/>
              <g id="Left_Shoe" data-name="Left Shoe" transform="matrix(0.174, 0.985, -0.985, 0.174, 72.85, 231.443)">
                <path id="shoe" d="M4.474,5.033A2,2,0,0,0,1.908,6.381L0,13.106A64.242,64.242,0,0,0,.9,21H57.3s2.2-7.268-2.538-7.848-7.87-1.047-7.87-1.047L20.68.419a1,1,0,0,0-1.332.532L17.663,5.039s-4.385,2.046-7.127,2.046Z" transform="translate(1 19)" fill="#e4e4e4"/>
              </g>
              <g id="Right_Shoe" data-name="Right Shoe" transform="translate(389.533 372.961)">
                <path id="shoe-2" data-name="shoe" d="M8.378,9.142a3.745,3.745,0,0,0-4.8,2.527L0,24.272c0,5.07,1.688,14.8,1.688,14.8H107.315s4.117-13.622-4.753-14.708S87.823,22.4,87.823,22.4L38.729.495a1.872,1.872,0,0,0-2.494,1L33.079,9.153s-8.212,3.834-13.346,3.834Z" transform="translate(1.873 35.9)" fill="#e4e4e4"/>
              </g>
              <path id="Skirt" d="M43.747,8.6S107.084-9.537,163.6,8.6c13.109,59.856,44.963,83.614,50.564,175.383-63.674,31.662-142.329-22.581-207.876,8.3C-12.436,149.088,13.783,45.077,43.747,8.6Z" transform="translate(175.366 -8.597)" fill="#1f4f59"/>
            </g>
            <g id="Body_Long_Sleeve_1" data-name="Body/Long Sleeve 1" transform="translate(206.77 139.659) rotate(21)">
              <path id="Skin" d="M2.1,153.519c-1.909-1.176-4-5.6,1.051-9.061,12.586-8.619,30.723-23.7,33.173-28.667C41.336,105.636,58.405,6.657,58.405,6.657L94.149,6.8S61.044,113.528,58.405,120.057c-3.958,9.8,4.418,24.715,8,32.732-5.645,2.523-8.268-.7-11.139-3.919-3.06-3.433-6.406-6.866-14-3.338-9.716,4.515-17.75,11.681-27.325,11.68A22.239,22.239,0,0,1,2.1,153.519Zm305.67-96.043L257.383,27.81,273.476,0l48.456,47.207q21.147,9.007,34.654,19.894c2.026,2.44,4.23,7.113-5.3,5.023s-19.645-3.863-21.435-.77,3.485,7.836.175,11.887a1.253,1.253,0,0,1-1.015.484Q324.454,83.725,307.769,57.476Z" transform="translate(0 152.239)" fill="#b28b67"/>
              <path id="Coat_Back" data-name="Coat Back" d="M0,3.811,14.513,0Q60.871,91.6,162.476,160.885l-42.7,62.133C50.133,154.9,4.526,82.332,0,3.811Z" transform="matrix(0.996, 0.087, -0.087, 0.996, 160.319, 5.311)" fill="#3a868e"/>
              <path id="Shirt" d="M0,194.734H131.708S85.937,83.6,85.937,5.912L46.208,0C14.984,50.15,6.166,111.895,0,194.734Z" transform="translate(95.509 0)" fill="#7ea00e"/>
              <path id="Coat_Front" data-name="Coat Front" d="M0,251.105C14.4,88.819,105.2,0,105.2,0l.032.028L105.25,0h2.593c4.655.16,14.18.577,14.18.577l9.6,27.4c1.524,50.107,17.791,201.959,17.791,201.959H63.2q.22,10.443.993,21.172Z" transform="translate(35.642)" fill="#3a868e"/>
              <path id="Shade" d="M24.124,84.553H.106A435.851,435.851,0,0,1,6.6,0,458.765,458.765,0,0,0,12.4,47.292c3.129,16.926,7.073,29.461,11.723,37.258Z" transform="translate(98.753 146.054)" fill="rgba(0,0,0,0.1)"/>
              <path id="Light" d="M0,19.765,42.573,0V19.765Z" transform="translate(117.935 157.887)" fill="rgba(255,255,255,0.2)"/>
            </g>
          </g>
        </g>
      </g>
    </g>
  </g>
</svg>
